<?xml version="1.0" encoding="utf-8"?>
<!-- Generator: Adobe Illustrator 16.0.4, SVG Export Plug-In . SVG Version: 6.00 Build 0)  -->
<!DOCTYPE svg PUBLIC "-//W3C//DTD SVG 1.1//EN" "http://www.w3.org/Graphics/SVG/1.1/DTD/svg11.dtd">
<svg version="1.1" id="Layer_1" xmlns:sketch="http://www.bohemiancoding.com/sketch/ns"
	 xmlns="http://www.w3.org/2000/svg" xmlns:xlink="http://www.w3.org/1999/xlink" x="0px" y="0px" width="26px" height="20px"
	 viewBox="-307.5 249.5 26 20" enable-background="new -307.5 249.5 26 20" xml:space="preserve">
	<g opacity="0.3">
		<path fill-rule="evenodd" clip-rule="evenodd" fill="#FFFFFF" d="M-298.083,265.927c-0.405,0-0.783-0.155-1.064-0.437l-6-6
			c-0.281-0.28-0.437-0.658-0.437-1.063c0-0.827,0.673-1.5,1.5-1.5c0.404,0,0.781,0.155,1.063,0.436l4.937,4.938l10.938-10.946
			c0.281-0.281,0.659-0.437,1.062-0.437c0.827,0,1.5,0.678,1.5,1.51c0,0.405-0.155,0.782-0.436,1.063l-12.001,12
			C-297.3,265.771-297.678,265.927-298.083,265.927z"/>
		<path d="M-286.083,251.417c0.551,0,1,0.45,1,1.01c0,0.28-0.109,0.53-0.289,0.71l-12.001,12c-0.18,0.181-0.43,0.29-0.71,0.29
			s-0.53-0.109-0.71-0.29l-6-6c-0.18-0.18-0.29-0.43-0.29-0.71c0-0.55,0.45-1,1-1c0.28,0,0.53,0.11,0.71,0.29l5.29,5.29
			l11.291-11.3C-286.613,251.527-286.363,251.417-286.083,251.417 M-286.083,250.417c-0.537,0-1.04,0.207-1.416,0.583
			l-10.584,10.593l-4.583-4.583c-0.377-0.376-0.88-0.583-1.417-0.583c-1.103,0-2,0.897-2,2c0,0.539,0.208,1.043,0.584,1.418
			l5.999,5.999c0.375,0.376,0.878,0.583,1.417,0.583s1.042-0.207,1.418-0.584l12-11.999c0.375-0.375,0.582-0.879,0.582-1.417
			C-284.083,251.318-284.98,250.417-286.083,250.417L-286.083,250.417z"/>
	</g>
	<path fill-rule="evenodd" clip-rule="evenodd" fill="#FFFFFF" d="M-286.083,251.417c-0.279,0-0.529,0.11-0.709,0.29
		l-11.291,11.3l-5.29-5.29c-0.18-0.18-0.43-0.29-0.71-0.29c-0.55,0-1,0.45-1,1c0,0.28,0.11,0.53,0.29,0.71l6,6
		c0.18,0.181,0.43,0.29,0.71,0.29s0.53-0.109,0.71-0.29l12.001-12c0.18-0.18,0.289-0.43,0.289-0.71
		C-285.083,251.867-285.533,251.417-286.083,251.417z"/>
</svg>
